
		<svg xmlns="http://www.w3.org/2000/svg" xmlns:xlink="http://www.w3.org/1999/xlink" version="1.1" width="3089.020771513353" height="701.0385756676558">
			
			<g transform="scale(4.451038575667655) translate(10, 10)">
				<defs id="SvgjsDefs1046"/><g id="SvgjsG1047" featureKey="root" fill="#000" transform="matrix(1,0,0,1,0,0)"/><g id="SvgjsG1048" featureKey="symbol1" fill="#000" transform="matrix(1.3502448797225952,0,0,1.3502448797225952,59.198040870971546,-5.062429525760461)"><g xmlns="http://www.w3.org/2000/svg"><g><g><rect x="38.554" y="46.444" fill="none" stroke="#fff" width="41.493" height="8.989"/><polygon fill="none" stroke="#fff" points="88,69.266 30.602,69.266 33.367,61.831 85.233,61.831    "/><g><line fill="none" stroke="#fff" x1="46.421" y1="55.434" x2="46.421" y2="61.831"/><line fill="none" stroke="#fff" x1="72.181" y1="55.434" x2="72.181" y2="61.831"/></g><g><line fill="none" stroke="#fff" x1="35.269" y1="69.266" x2="35.269" y2="76.699"/><line fill="none" stroke="#fff" x1="83.332" y1="69.266" x2="83.332" y2="76.699"/></g></g></g><g><ellipse fill="none" stroke="#fff" cx="20.854" cy="36.698" rx="12.854" ry="17.396"/><line fill="none" stroke="#fff" x1="20.854" y1="36.808" x2="20.854" y2="76.699"/><polyline fill="none" stroke="#fff" points="20.854,39.912 20.854,39.912 14.87,33.706   "/><polyline fill="none" stroke="#fff" points="26.837,38.803 20.854,45.008 20.854,45.008   "/><polyline fill="none" stroke="#fff" points="20.854,50.105 20.854,50.105 14.87,43.9   "/></g></g></g><g id="SvgjsG1049" featureKey="text1" fill="#000" transform="matrix(4.184145927429199,0,0,4.184145927429199,202.9822936529556,-2.2530645600653756)"><path d="M8.92 16.240000000000002 c1.48 0.4 2.88 1.72 2.88 3.66 c0 2.54 -1.6 4.1 -5.08 4.1 l-5.52 0 l0 -14 l5.22 0 c2.9 0 4.36 1.64 4.36 3.52 c0 1.48 -0.96 2.32 -1.86 2.72 z M6.14 12.56 l-2.02 0 l0 2.82 l2.02 0 c1.24 0 1.74 -0.58 1.74 -1.42 c0 -0.9 -0.58 -1.4 -1.74 -1.4 z M6.56 21.44 c1.6 0 2.32 -0.66 2.32 -1.9 c0 -1.06 -0.72 -1.8 -2.44 -1.8 l-2.32 0 l0 3.7 l2.44 0 z M18.66 13.42 c2.36 0 5.62 1.78 5 6.38 l-7.56 0 c0.36 1.3 1.44 1.98 2.84 1.98 c1.3 0 1.8 -0.3 2.54 -0.7 l1.58 1.54 c-0.9 0.94 -2.18 1.58 -4.22 1.58 c-2.6 0 -5.64 -1.78 -5.64 -5.36 c0 -3.64 3.1 -5.42 5.46 -5.42 z M18.66 15.86 c-1.04 0 -2.14 0.64 -2.52 1.92 l5 0 c-0.32 -1.28 -1.46 -1.92 -2.48 -1.92 z M31.659999999999997 13.44 c1.98 0 3.94 1.3 3.94 4.58 l0 5.98 l-2.86 0 l0 -5.78 c0 -1.7 -0.66 -2.28 -1.76 -2.28 c-1.52 0 -2.42 1.44 -2.64 2.16 l0 5.9 l-2.86 0 l0 -10.4 l2.86 0 l0 1.92 c0.2 -0.54 1.32 -2.08 3.32 -2.08 z M42.62 13.42 c1.9 0 3.5 0.82 4.48 2.5 l-2.2 1.02 c-0.56 -0.56 -1.1 -0.98 -2.24 -0.98 c-1.3 0 -2.68 0.98 -2.68 2.86 c0 1.86 1.38 2.82 2.68 2.82 c1.14 0 1.68 -0.4 2.24 -0.96 l2.22 1.02 c-1 1.68 -2.56 2.46 -4.5 2.46 c-2.32 0 -5.42 -1.68 -5.42 -5.34 c0 -3.62 3.1 -5.4 5.42 -5.4 z M54.94 13.44 c1.98 0 3.94 1.3 3.94 4.58 l0 5.98 l-2.86 0 l0 -5.78 c0 -1.7 -0.66 -2.28 -1.76 -2.28 c-1.52 0 -2.42 1.44 -2.64 2.16 l0 5.9 l-2.86 0 l0 -14.14 l2.86 0 l0 5.66 c0.2 -0.54 1.32 -2.08 3.32 -2.08 z M74.44 13.44 c2.16 0 4.12 1.4 4.12 4.88 l0 5.68 l-2.86 0 l0 -5.62 c0 -1.44 -0.66 -2.44 -2.14 -2.44 c-1.34 0 -2.18 1.14 -2.44 2.2 l0 5.86 l-2.86 0 l0 -5.62 c0 -1.44 -0.9 -2.44 -2.14 -2.44 c-1.4 0 -2.22 1 -2.44 2.2 l0 5.86 l-2.86 0 l0 -10.4 l2.86 0 l0 2 c0.06 -0.54 1.08 -2.16 3.16 -2.16 c1.48 0 2.96 0.8 3.76 2.34 c0.28 -0.66 1.48 -2.34 3.84 -2.34 z M88.18 13.6 l2.86 0 l0 10.4 l-2.86 0 l0 -1.28 c-0.06 0.42 -1.08 1.48 -2.88 1.48 c-2.38 0 -5.14 -1.72 -5.14 -5.42 c0 -3.58 2.76 -5.36 5.14 -5.36 c1.8 0 2.82 1.12 2.88 1.34 l0 -1.16 z M85.7 21.66 c1.4 0 2.62 -0.96 2.62 -2.88 c0 -1.86 -1.22 -2.82 -2.62 -2.82 c-1.44 0 -2.76 0.98 -2.76 2.82 c0 1.9 1.32 2.88 2.76 2.88 z M99.58000000000001 13.44 c0.26 0 0.5 0 0.76 0.06 l0 2.74 c-0.24 -0.06 -0.48 -0.06 -0.68 -0.06 c-1.92 0 -3.5 1.38 -3.68 3.38 l0 4.44 l-2.86 0 l0 -10.4 l2.86 0 l0 2.6 c0.46 -1.58 1.72 -2.76 3.6 -2.76 z M109.24000000000001 24 l-3.58 -4.16 l-0.82 0.86 l0 3.3 l-2.86 0 l0 -3.7 l0 -10.44 l2.86 0 l0 7.34 l3.34 -3.6 l3.42 0 l-4.18 4.38 l5.12 6.02 l-3.3 0 z"/></g>
			</g>
		</svg>
	